<?xml version="1.0" standalone="no"?>
<!DOCTYPE svg PUBLIC "-//W3C//DTD SVG 20010904//EN"
 "http://www.w3.org/TR/2001/REC-SVG-20010904/DTD/svg10.dtd">
<svg version="1.0" xmlns="http://www.w3.org/2000/svg"
 width="325.000000pt" height="267.000000pt" viewBox="0 0 325.000000 267.000000"
 preserveAspectRatio="xMidYMid meet">
<metadata>
Created by potrace 1.16, written by Peter Selinger 2001-2019
</metadata>
<g transform="translate(0.000000,267.000000) scale(0.100000,-0.100000)"
fill="#000000" stroke="none">
<path d="M1530 2365 l0 -115 25 10 c15 6 26 6 30 0 10 -17 51 -11 79 11 36 29
37 89 0 126 -25 25 -43 27 -86 8 -16 -6 -18 -1 -18 34 0 30 -4 41 -15 41 -12
0 -15 -19 -15 -115z"/>
<path d="M734 2132 c-7 -4 -50 -110 -97 -237 -47 -126 -178 -481 -291 -788
-114 -307 -204 -562 -201 -567 4 -6 550 -10 1466 -10 1159 0 1461 3 1464 13 6
16 -572 1579 -588 1589 -15 10 -1738 10 -1753 0z m297 -77 c3 -46 4 -50 18
-50 8 0 16 6 19 13 2 7 -2 11 -8 10 -7 -2 -15 3 -17 10 -3 6 2 12 11 12 9 0
16 5 16 11 0 6 -7 9 -15 5 -8 -3 -15 -1 -15 4 0 7 254 9 711 8 l710 -3 268
-725 c148 -399 271 -735 275 -747 l7 -23 -955 0 c-526 0 -956 3 -957 8 0 4 -2
23 -3 42 -2 40 -13 63 -27 55 -14 -9 -11 -25 4 -20 8 3 13 -6 14 -26 2 -28 1
-30 -15 -18 -14 11 -15 11 -4 -1 14 -17 16 -34 2 -25 -5 3 -10 1 -10 -4 0 -8
-133 -11 -425 -11 -234 0 -425 2 -425 4 0 3 36 101 79 218 122 328 452 1220
463 1251 l10 27 134 0 134 0 1 -25z"/>
<path d="M1567 393 c-20 -5 -47 -52 -47 -82 0 -11 12 -34 27 -51 22 -27 31
-31 57 -26 17 4 43 6 59 6 l27 0 0 75 0 75 -27 0 c-16 -1 -39 1 -53 4 -14 2
-33 2 -43 -1z"/>
</g>
</svg>
